<svg width="24" height="16" viewBox="0 0 24 16" fill="none" xmlns="http://www.w3.org/2000/svg">
<path fill-rule="evenodd" clip-rule="evenodd" d="M0 1C0 0.447715 0.447715 0 1 0H23C23.5523 0 24 0.447715 24 1V1.28572C24 1.838 23.5523 2.28572 23 2.28572H1C0.447716 2.28572 0 1.838 0 1.28572V1ZM0 7.85714C0 7.30485 0.447715 6.85713 1 6.85713H23C23.5523 6.85713 24 7.30485 24 7.85713V8.14285C24 8.69513 23.5523 9.14285 23 9.14285H1C0.447716 9.14285 0 8.69513 0 8.14285V7.85714ZM1 13.7143C0.447715 13.7143 0 14.162 0 14.7143V15C0 15.5523 0.447716 16 1 16H23C23.5523 16 24 15.5523 24 15V14.7143C24 14.162 23.5523 13.7143 23 13.7143H1Z" fill="black"/>
</svg>
