<svg xmlns="http://www.w3.org/2000/svg" viewBox="0 0 128 128">
	<path fill="#F05A29"
		d="M52.154 51.104H12.621a1.5 1.5 0 01-1.5-1.5v-30.5a1.5 1.5 0 011.5-1.5h39.533a1.5 1.5 0 011.5 1.5v30.5a1.5 1.5 0 01-1.5 1.5zm-38.033-3h36.533v-27.5H14.121v27.5z" />
	<path fill="#F05A29"
		d="M126.654 50.874a11.336 11.336 0 00-8.061-3.34h-.001a11.324 11.324 0 00-8.059 3.34l-3.285 3.327a6.904 6.904 0 00-3.873-1.187c-3.885 0-7.045 3.198-7.045 7.129 0 .31.026.615.064.915-2.691 2.086-4.43 5.344-4.43 9.004 0 6.287 5.114 11.402 11.4 11.402 10.093 0 18.305 8.212 18.305 18.305 0 10.314-8.392 18.705-18.697 18.705a18.57 18.57 0 01-13.189-5.561 18.584 18.584 0 01-5.395-13.263 1.499 1.499 0 00-.179-.721l-.208-.386V59.451c0-6.289-5.116-11.404-11.404-11.404h-8.401V14.026c0-4.136-3.364-7.5-7.5-7.5H8.406c-4.136 0-7.5 3.364-7.5 7.5V118.92a1.5 1.5 0 001.5 1.5h60.29a1.5 1.5 0 001.5-1.5V51.047h8.401c4.634 0 8.404 3.77 8.404 8.404v39.471c0 .248.062.492.179.711l.209.388a21.552 21.552 0 006.259 15c4.073 4.126 9.51 6.418 15.315 6.453 11.969 0 21.706-9.737 21.706-21.705 0-11.747-9.558-21.305-21.305-21.305-4.632 0-8.4-3.77-8.4-8.402 0-2.346.968-4.469 2.522-5.994 1.261 1.949 3.427 3.241 5.888 3.241 3.874 0 7.026-3.215 7.026-7.166a7.145 7.145 0 00-1.077-3.775l3.331-3.373a8.334 8.334 0 015.937-2.461c2.243 0 4.353.875 5.941 2.462a1.5 1.5 0 002.122-2.122zM8.406 9.526h48.29c2.482 0 4.5 2.019 4.5 4.5V117.42H3.906V14.026c0-2.481 2.019-4.5 4.5-4.5zm94.969 54.783c-2.23 0-4.045-1.869-4.045-4.166 0-2.277 1.814-4.129 4.045-4.129 2.22 0 4.026 1.852 4.026 4.129 0 2.297-1.806 4.166-4.026 4.166z" />
	</svg>