<svg height="512pt" viewBox="0 0 512 512" width="512pt" xmlns="http://www.w3.org/2000/svg"><path d="m0 256c0-141.386719 114.613281-256 256-256s256 114.613281 256 256c0 94.484375-51.195312 177.003906-127.351562 221.359375-37.800782-22.015625-81.75-34.640625-128.648438-34.640625s-90.847656 12.625-128.648438 34.640625c-76.15625-44.355469-127.351562-126.875-127.351562-221.359375zm0 0" fill="#75ccd4"/><path d="m262.796875 291.214844c-11.714844-11.71875-11.714844-30.710938 0-42.429688l197.988281-197.988281c11.71875-11.714844 30.710938-11.714844 42.429688 0 11.714844 11.714844 11.714844 30.710937 0 42.425781l-197.992188 197.992188c-11.714844 11.714844-30.710937 11.714844-42.425781 0zm0 0" fill="#738c96"/><path d="m503.214844 93.222656-173.242188 173.242188c-5.859375 5.855468-15.355468 5.855468-21.214844 0-5.855468-5.859375-5.855468-15.355469 0-21.214844l183.847657-183.847656c4.308593-4.304688 10.578125-5.433594 15.925781-3.410156 5.992188 11.332031 4.21875 25.695312-5.316406 35.230468zm0 0" fill="#87a0af"/><path d="m341.160156 145.160156c0 47.035156-38.128906 85.160156-85.160156 85.160156s-85.160156-38.125-85.160156-85.160156c0-47.03125 38.128906-85.160156 85.160156-85.160156s85.160156 38.128906 85.160156 85.160156zm0 0" fill="#ffe899"/><path d="m256 60c-.058594 0-.113281 0-.171875 0-10.539063.019531-20.515625 5.113281-26.710937 13.640625-2.113282 2.917969-4.089844 5.996094-5.9375 9.195313 3.078124 1.863281 5.144531 5.234374 5.144531 9.101562 0 5.878906-4.765625 10.644531-10.644531 10.644531-1.175782 0-2.300782-.199219-3.359376-.550781-4.679687 13.1875-7.289062 27.777344-7.289062 43.128906 0 3.601563.152344 7.160156.433594 10.667969 5.675781.226563 10.214844 4.890625 10.214844 10.621094 0 4.558593-2.871094 8.4375-6.898438 9.953125 3.714844 15.136718 10.035156 28.84375 18.335938 40.277344 6.195312 8.53125 16.171874 13.621093 26.710937 13.640624h.171875c47.03125 0 85.160156-38.128906 85.160156-85.160156s-38.128906-85.160156-85.160156-85.160156zm-6.386719 63.871094c-5.878906 0-10.644531-4.765625-10.644531-10.644532 0-5.878906 4.765625-10.644531 10.644531-10.644531 5.878907 0 10.644531 4.765625 10.644531 10.644531 0 5.878907-4.765624 10.644532-10.644531 10.644532zm31.933594 31.933594c-5.878906 0-10.644531-4.765626-10.644531-10.644532s4.765625-10.644531 10.644531-10.644531 10.644531 4.765625 10.644531 10.644531-4.765625 10.644532-10.644531 10.644532zm31.9375-10.644532c-5.878906 0-10.644531-4.765625-10.644531-10.644531s4.765625-10.644531 10.644531-10.644531 10.644531 4.765625 10.644531 10.644531-4.765625 10.644531-10.644531 10.644531zm0 0" fill="#fff2b4"/><path d="m320 80c0 5.523438-4.476562 10-10 10s-10-4.476562-10-10 4.476562-10 10-10 10 4.476562 10 10zm-110 30c-5.523438 0-10 4.476562-10 10s4.476562 10 10 10 10-4.476562 10-10-4.476562-10-10-10zm0 0" fill="#ebae56"/><path d="m295 105c0 5.523438-4.476562 10-10 10s-10-4.476562-10-10 4.476562-10 10-10 10 4.476562 10 10zm-95-25c-5.523438 0-10 4.476562-10 10s4.476562 10 10 10 10-4.476562 10-10-4.476562-10-10-10zm45-25c-5.523438 0-10 4.476562-10 10s4.476562 10 10 10 10-4.476562 10-10-4.476562-10-10-10zm0 0" fill="#925b44"/><path d="m260.324219 244.839844c0 47.03125-38.128907 85.160156-85.164063 85.160156-47.03125 0-85.160156-38.128906-85.160156-85.160156 0-47.035156 38.128906-85.160156 85.160156-85.160156 47.035156 0 85.164063 38.125 85.164063 85.160156zm0 0" fill="#fc544d"/><path d="m175.160156 159.675781c-.054687 0-.113281 0-.167968 0-10.542969.023438-20.519532 5.113281-26.710938 13.640625-2.117188 2.917969-4.089844 5.996094-5.941406 9.195313 3.078125 1.863281 5.144531 5.238281 5.144531 9.101562 0 5.878907-4.765625 10.644531-10.644531 10.644531-1.175782 0-2.300782-.199218-3.355469-.546874-4.683594 13.183593-7.289063 27.773437-7.289063 43.128906 0 3.597656.152344 7.15625.429688 10.664062 5.679688.230469 10.214844 4.890625 10.214844 10.625 0 4.558594-2.871094 8.433594-6.898438 9.953125 3.714844 15.132813 10.039063 28.84375 18.339844 40.273438 6.191406 8.53125 16.171875 13.621093 26.710938 13.640625h.167968c47.035156 0 85.164063-38.125 85.164063-85.160156 0-47.03125-38.128907-85.160157-85.164063-85.160157zm-6.386718 63.871094c-5.878907 0-10.644532-4.765625-10.644532-10.644531s4.765625-10.644532 10.644532-10.644532c5.878906 0 10.644531 4.765626 10.644531 10.644532s-4.765625 10.644531-10.644531 10.644531zm31.9375 31.9375c-5.878907 0-10.644532-4.765625-10.644532-10.644531s4.765625-10.644532 10.644532-10.644532c5.878906 0 10.644531 4.765626 10.644531 10.644532s-4.765625 10.644531-10.644531 10.644531zm31.933593-10.644531c-5.878906 0-10.644531-4.765625-10.644531-10.644532 0-5.878906 4.765625-10.644531 10.644531-10.644531 5.878907 0 10.644531 4.765625 10.644531 10.644531 0 5.878907-4.765624 10.644532-10.644531 10.644532zm0 0" fill="#fd6c55"/><path d="m420 244.839844c0 47.03125-38.128906 85.160156-85.160156 85.160156-47.035156 0-85.160156-38.128906-85.160156-85.160156 0-47.035156 38.125-85.160156 85.160156-85.160156 47.03125 0 85.160156 38.125 85.160156 85.160156zm0 0" fill="#925b44"/><path d="m334.839844 159.675781c-.058594 0-.113282 0-.171875 0-10.539063.023438-20.515625 5.113281-26.710938 13.640625-2.117187 2.917969-4.089843 5.996094-5.941406 9.195313 3.082031 1.863281 5.144531 5.234375 5.144531 9.101562 0 5.878907-4.765625 10.644531-10.644531 10.644531-1.171875 0-2.300781-.199218-3.355469-.550781-4.679687 13.1875-7.289062 27.777344-7.289062 43.128907 0 3.601562.152344 7.160156.429687 10.667968 5.679688.226563 10.214844 4.890625 10.214844 10.625 0 4.554688-2.867187 8.433594-6.894531 9.949219 3.714844 15.136719 10.035156 28.847656 18.335937 40.277344 6.195313 8.53125 16.171875 13.621093 26.710938 13.640625h.171875c47.03125.003906 85.160156-38.125 85.160156-85.15625 0-47.035156-38.128906-85.164063-85.160156-85.164063zm-6.386719 63.871094c-5.878906 0-10.644531-4.765625-10.644531-10.644531s4.765625-10.644532 10.644531-10.644532 10.644531 4.765626 10.644531 10.644532-4.765625 10.644531-10.644531 10.644531zm31.933594 31.9375c-5.878907 0-10.644531-4.765625-10.644531-10.644531s4.765624-10.644532 10.644531-10.644532c5.878906 0 10.644531 4.765626 10.644531 10.644532s-4.765625 10.644531-10.644531 10.644531zm31.9375-10.644531c-5.878907 0-10.644531-4.765625-10.644531-10.644532 0-5.878906 4.765624-10.644531 10.644531-10.644531 5.878906 0 10.644531 4.765625 10.644531 10.644531 0 5.878907-4.765625 10.644532-10.644531 10.644532zm0 0" fill="#a96a51"/><path d="m442 285c0 8.285156-6.714844 15-15 15h-7.921875l-34.066406 177.144531c-37.882813 22.148438-81.960938 34.855469-129.011719 34.855469s-91.128906-12.707031-129.011719-34.855469l-34.066406-177.144531h-7.921875c-8.285156 0-15-6.714844-15-15s6.714844-15 15-15h342c8.285156 0 15 6.714844 15 15zm0 0" fill="#fde5bd"/><path d="m442 285c0 8.285156-6.714844 15-15 15h-7.921875l-34.066406 177.144531c-37.882813 22.148438-81.960938 34.855469-129.011719 34.855469-18.492188 0-36.523438-1.980469-53.90625-5.703125-24.1875-14.171875-42.09375-38.289063-47.695312-67.410156l-26.707032-138.886719h-2.691406c-8.285156 0-15-6.714844-15-15s6.714844-15 15-15h302c8.285156 0 15 6.714844 15 15zm0 0" fill="#fff5f5"/><path d="m124.613281 464.785156-13.824219-71.875c33.160157-24.035156 59.484376-56.15625 76.640626-92.910156h80.039062c-18.160156 73.53125-70.703125 135.746094-142.855469 164.785156zm198.734375-164.785156c-8.574218 88.007812-65.707031 165.367188-148.789062 198.765625 25.585937 8.578125 52.96875 13.234375 81.441406 13.234375 14.257812 0 28.234375-1.183594 41.855469-3.425781 61.746093-48.769531 97.433593-126.546875 90.28125-208.574219zm0 0" fill="#fdbf43"/><path d="m156.871094 448.847656c-.976563-3.25-1.816406-6.570312-2.46875-9.960937l-13.773438-71.613281c19.328125-19.582032 35.171875-42.363282 46.800782-67.273438h80.046874c-15.332031 62.066406-55.164062 116.054688-110.605468 148.847656zm166.476562-148.847656c-8.195312 84.113281-60.742187 158.5-137.910156 194.078125 5.105469 4.625 10.679688 8.722656 16.636719 12.210937 17.386719 3.730469 35.425781 5.710938 53.925781 5.710938 14.242188 0 28.207031-1.183594 41.816406-3.417969 61.765625-48.769531 97.472656-126.542969 90.320313-208.582031zm0 0" fill="#fdcb6b"/></svg>