<svg viewBox="0 0 512 512.00125" xmlns="http://www.w3.org/2000/svg"><path d="m512 256c0 141.386719-114.613281 256-256 256-141.382812 0-256-114.613281-256-256 0-141.382812 114.617188-256 256-256 141.386719 0 256 114.617188 256 256zm0 0" fill="#85e8e8"/><path d="m57.535156 417.695312c10.984375 13.464844 23.308594 25.789063 36.769532 36.769532l182.351562-182.347656-36.769531-36.769532zm0 0" fill="#ffbe82"/><path d="m254.027344 249.488281-14.140625-14.140625-83.132813 83.128906-99.21875 99.21875c4.226563 5.179688 8.640625 10.199219 13.253906 15.03125l100.109376-100.109374 22.628906 22.628906 83.128906-83.128906zm0 0" fill="#ff965a"/><path d="m255.398438 395.902344-139.300782-139.296875c-5.273437-5.273438-5.273437-13.820313 0-19.09375l204.707032-204.707031c43.738281-43.738282 114.652343-43.738282 158.390624 0 43.742188 43.738281 43.742188 114.652343 0 158.390624l-204.707031 204.707032c-5.273437 5.273437-13.820312 5.273437-19.089843 0zm0 0" fill="#aa3c6e"/><g fill="#823264"><path d="m195.027344 258.070312c-7.007813-7.011718-7.007813-18.375 0-25.386718l178.011718-178.007813c7.007813-7.011719 18.375-7.011719 25.382813 0 7.011719 7.007813 7.011719 18.375 0 25.382813l-178.007813 178.011718c-7.011718 7.007813-18.375 7.007813-25.386718 0zm0 0"/><path d="m253.933594 316.972656c-7.011719-7.007812-7.011719-18.375 0-25.382812l178.007812-178.011719c7.011719-7.007813 18.375-7.007813 25.386719 0 7.007813 7.011719 7.007813 18.375 0 25.386719l-178.011719 178.007812c-7.007812 7.011719-18.375 7.011719-25.382812 0zm0 0"/><path d="m137.3125 258.726562 204.707031-204.707031c40.140625-40.144531 103.167969-43.4375 147.074219-9.898437-3.003906-3.933594-6.300781-7.71875-9.898438-11.316406-43.738281-43.738282-114.652343-43.738282-158.390624 0l-204.707032 204.707031c-5.273437 5.273437-5.273437 13.820312 0 19.09375l21.214844 21.210937c-5.273438-5.269531-5.273438-13.816406 0-19.089844zm0 0"/></g><path d="m479.195312 32.804688c-43.738281-43.738282-114.652343-43.738282-158.390624 0l-124.609376 124.609374 158.390626 158.394532 124.609374-124.613282c43.742188-43.738281 43.742188-114.652343 0-158.390624zm0 0" fill="#ffdc64"/><path d="m489.09375 44.121094c-3.003906-3.933594-6.300781-7.71875-9.898438-11.316406-43.738281-43.738282-114.652343-43.738282-158.390624 0l-124.609376 124.609374 21.210938 21.214844 124.613281-124.609375c40.140625-40.140625 103.167969-43.4375 147.074219-9.898437zm0 0" fill="#fac855"/><path d="m479.195312 32.804688c-43.738281-43.738282-114.652343-43.738282-158.390624 0l-33.398438 33.398437 158.390625 158.390625 33.398437-33.398438c43.742188-43.738281 43.742188-114.652343 0-158.390624zm0 0" fill="#f91e43"/><path d="m489.09375 44.121094c-3.003906-3.933594-6.300781-7.71875-9.898438-11.316406-43.738281-43.738282-114.652343-43.738282-158.390624 0l-33.398438 33.398437 21.214844 21.214844 33.398437-33.398438c40.140625-40.140625 103.167969-43.4375 147.074219-9.898437zm0 0" fill="#e20a39"/><path d="m258.628906 219.851562 139.792969-139.792968c7.011719-7.007813 7.011719-18.375 0-25.382813-7.007813-7.011719-18.375-7.011719-25.382813 0l-139.792968 139.789063zm0 0" fill="#fac855"/><path d="m349.84375 128.640625 48.578125-48.582031c7.011719-7.007813 7.011719-18.375 0-25.382813-7.007813-7.011719-18.375-7.011719-25.382813 0l-48.582031 48.578125zm0 0" fill="#e20a39"/><path d="m317.535156 278.757812 139.792969-139.792968c7.007813-7.011719 7.007813-18.375 0-25.386719-7.011719-7.007813-18.375-7.007813-25.386719 0l-139.789062 139.792969zm0 0" fill="#fac855"/><path d="m408.746094 187.542969 48.582031-48.578125c7.007813-7.011719 7.007813-18.375 0-25.386719-7.011719-7.007813-18.375-7.007813-25.386719 0l-48.578125 48.582031zm0 0" fill="#e20a39"/></svg>