<?xml version="1.0" encoding="iso-8859-1"?>
<!-- Generator: Adobe Illustrator 19.0.0, SVG Export Plug-In . SVG Version: 6.00 Build 0)  -->
<svg version="1.1" id="Capa_1" xmlns="http://www.w3.org/2000/svg" xmlns:xlink="http://www.w3.org/1999/xlink" x="0px" y="0px"
	 viewBox="0 0 512 512" style="enable-background:new 0 0 512 512;" xml:space="preserve">
<path style="fill:#DB4573;" d="M512,256c0,141.385-114.615,256-256,256c-46.446,0-89.997-12.372-127.551-33.991
	c-27.784-15.997-52.287-37.073-72.234-61.942c-8.213-10.219-15.653-21.096-22.225-32.528v-0.01C12.361,345.976,0,302.435,0,256
	C0,114.615,114.615,0,256,0S512,114.615,512,256z"/>
<path style="fill:#F06798;" d="M460.581,204.581c0,112.987-91.594,204.581-204.581,204.581c-37.117,0-71.92-9.887-101.931-27.163
	c-22.203-12.785-41.784-29.627-57.725-49.501c-6.563-8.167-12.508-16.859-17.761-25.994v-0.008
	c-17.285-30.01-27.163-64.807-27.163-101.914C51.419,91.594,143.013,0,256,0S460.581,91.594,460.581,204.581z"/>
<circle style="fill:#78CFF0;" cx="359.225" cy="152.775" r="152.775"/>
<path style="fill:#42A7C6;" d="M250.48,260.071c-58.946-59.714-58.702-155.906,0.717-215.324s155.61-59.663,215.324-0.717
	c-31.216-29.724-103.868-6.221-163.065,52.976S220.756,228.855,250.48,260.071z"/>
<path style="fill:#FEE670;" d="M341.504,350.02l-60.217,36.174l-152.837,91.815c-39.215-22.58-71.889-55.254-94.459-94.469
	l99.986-166.442l4.483-7.45l23.521-39.163L341.504,350.02z"/>
<g>
	<path style="fill:#EDAA5C;" d="M212.961,221.466L56.216,416.068c-8.213-10.219-15.653-21.096-22.225-32.528v-0.01l127.99-213.044
		L212.961,221.466z"/>
	<path style="fill:#EDAA5C;" d="M395.26,308.457l-63.748,63.748c-10.085,10.085-26.429,10.085-36.514,0L139.794,217.001
		c-10.085-10.085-10.085-26.429,0-36.514l63.748-63.748L395.26,308.457z"/>
	<path style="fill:#EDAA5C;" d="M341.508,350.017l-60.224,36.182L139.794,244.708c-7.463-7.463-9.406-18.361-5.815-27.611
		c1.034-2.659,2.519-5.18,4.477-7.448c0.414-0.503,0.864-0.982,1.337-1.456l29.946-29.946L341.508,350.017z"/>
</g>
<path style="fill:#FEE670;" d="M367.834,335.882l-36.322,36.322c-10.085,10.085-26.429,10.085-36.514,0L185.226,262.433
	c-10.078-10.078-10.085-26.429,0-36.514l36.322-36.322L367.834,335.882z"/>
<path style="fill:#EDAA5C;" d="M420.196,317.877c-4.13,4.13-9.539,6.199-14.962,6.199c-5.408,0-10.831-2.069-14.962-6.199
	l-196.15-196.151c-8.268-8.268-8.26-21.663,0-29.924c4.13-4.13,9.539-6.199,14.962-6.199c5.408,0,10.831,2.069,14.962,6.199
	l196.15,196.151C428.465,296.221,428.457,309.617,420.196,317.877z"/>
<path style="fill:#FEE670;" d="M420.196,317.877c-4.13,4.13-9.539,6.199-14.962,6.199c-5.408,0-10.831-2.069-14.962-6.199
	l-156.26-156.26c-8.261-8.261-8.26-21.663,0-29.924c4.13-4.13,9.546-6.192,14.962-6.199c5.416,0.007,10.831,2.069,14.962,6.199
	l156.26,156.26C428.465,296.221,428.457,309.617,420.196,317.877z"/>
<g>
	<path style="fill:#78CFF0;" d="M448.607,360.575L448.607,360.575c-10.82,0-19.591-8.771-19.591-19.591v-92.469
		c0-10.82,8.771-19.591,19.591-19.591l0,0c10.82,0,19.591,8.771,19.591,19.591v92.469
		C468.198,351.804,459.427,360.575,448.607,360.575z"/>
	<path style="fill:#78CFF0;" d="M354.321,297.101L354.321,297.101c-10.82,0-19.591-8.771-19.591-19.591v-92.469
		c0-10.82,8.771-19.591,19.591-19.591l0,0c10.82,0,19.591,8.771,19.591,19.591v92.469
		C373.911,288.329,365.141,297.101,354.321,297.101z"/>
	<path style="fill:#78CFF0;" d="M321.741,240.679L321.741,240.679c-10.82,0-19.591-8.771-19.591-19.591v-92.469
		c0-10.82,8.771-19.591,19.591-19.591l0,0c10.82,0,19.591,8.771,19.591,19.591v92.469
		C341.332,231.908,332.561,240.679,321.741,240.679z"/>
</g>
<circle style="fill:#A8EBFF;" cx="460.361" cy="147.425" r="32.912"/>
<g>
</g>
<g>
</g>
<g>
</g>
<g>
</g>
<g>
</g>
<g>
</g>
<g>
</g>
<g>
</g>
<g>
</g>
<g>
</g>
<g>
</g>
<g>
</g>
<g>
</g>
<g>
</g>
<g>
</g>
</svg>
