<svg xmlns="http://www.w3.org/2000/svg" viewBox="0 0 128 128">
	<path fill="#F05A29"
		d="M117.37 60.607h-7.385v-8.1a1.5 1.5 0 00-1.5-1.5H2a1.5 1.5 0 00-1.5 1.5v16.639c0 30.186 24.558 54.744 54.742 54.744 26.217 0 48.178-18.529 53.502-43.176v.146h8.626c5.586 0 10.13-4.542 10.13-10.125 0-5.585-4.544-10.128-10.13-10.128zm-62.128 60.284c-27.676 0-50.344-21.843-51.678-49.195H106.92c-1.333 27.352-24.001 49.195-51.678 49.195zm51.743-52.196H3.5V54.008h103.485v14.687zm10.385 9.165h-8.086c.456-2.839.701-5.748.701-8.714v-5.539h7.385c3.932 0 7.13 3.197 7.13 7.128 0 3.929-3.198 7.125-7.13 7.125zM30.883 41.137c-5.583 0-10.126-4.543-10.126-10.127 0-5.583 4.543-10.125 10.126-10.125 3.93 0 7.127-3.198 7.127-7.128a7.135 7.135 0 00-7.127-7.127 1.5 1.5 0 110-3c5.584 0 10.127 4.543 10.127 10.127 0 5.584-4.543 10.128-10.127 10.128-3.93 0-7.126 3.196-7.126 7.125 0 3.93 3.196 7.127 7.126 7.127a1.5 1.5 0 110 3zM56.767 41.137c-5.584 0-10.128-4.543-10.129-10.126.001-5.583 4.545-10.125 10.129-10.125 3.928 0 7.124-3.198 7.124-7.128s-3.196-7.127-7.124-7.127a1.5 1.5 0 110-3c5.582 0 10.124 4.543 10.124 10.127 0 5.584-4.542 10.128-10.124 10.128-3.93 0-7.128 3.196-7.129 7.125.001 3.929 3.199 7.126 7.129 7.126a1.5 1.5 0 110 3zM82.646 41.137c-5.583 0-10.126-4.543-10.127-10.126.001-5.583 4.544-10.125 10.127-10.125 3.931 0 7.128-3.198 7.128-7.128s-3.197-7.127-7.128-7.127a1.5 1.5 0 110-3c5.585 0 10.128 4.543 10.128 10.127 0 5.584-4.543 10.128-10.128 10.128-3.929 0-7.126 3.196-7.127 7.125.001 3.929 3.198 7.126 7.127 7.126a1.5 1.5 0 110 3z" />
	</svg>