<?xml version="1.0" ?><svg style="enable-background:new 0 0 512 512;" version="1.1" viewBox="0 0 512 512" xml:space="preserve" xmlns="http://www.w3.org/2000/svg" xmlns:xlink="http://www.w3.org/1999/xlink"><style type="text/css">
	.st0{fill:url(#SVGID_1_);}
	.st1{fill:#FFFFFF;}
</style><g id="Edges"/><g id="Background_1_"><radialGradient cx="50.1582" cy="15.1047" gradientTransform="matrix(5.233596e-02 -0.9986 0.8488 4.448556e-02 12.0003 498.8006)" gradientUnits="userSpaceOnUse" id="SVGID_1_" r="684.4449"><stop offset="0" style="stop-color:#FED576"/><stop offset="0.2634" style="stop-color:#F47133"/><stop offset="0.6091" style="stop-color:#BC3081"/><stop offset="1" style="stop-color:#4C63D2"/></radialGradient><path class="st0" d="M18.8,250.1v12.8c3.3,122.4,101.9,220.7,219.2,229.9h36.1c118-9.3,214.9-108.5,218.1-230.1v-12.6   C489,126.3,388.7,25.9,267.9,19.7C137.9,13.1,22.4,117.4,18.8,250.1z"/></g><g id="Symbol"><g><path class="st1" d="M256.6,138.3c37.7,0,42.2,0.1,57.1,0.8c13.8,0.6,21.2,3,26.2,4.9c6.6,2.6,11.3,5.7,16.2,10.7    c4.9,5,8,9.8,10.6,16.5c1.9,5.1,4.2,12.7,4.9,26.7c0.7,15.2,0.8,19.7,0.8,58.1s-0.1,42.9-0.8,58.1c-0.6,14-2.9,21.6-4.9,26.7    c-2.6,6.7-5.6,11.5-10.6,16.5c-4.9,5-9.6,8.1-16.2,10.7c-5,2-12.5,4.3-26.2,4.9c-14.9,0.7-19.4,0.8-57.1,0.8    c-37.7,0-42.2-0.1-57.1-0.8c-13.8-0.6-21.2-3-26.2-4.9c-6.6-2.6-11.3-5.7-16.2-10.7c-4.9-5-8-9.8-10.6-16.5    c-1.9-5.1-4.2-12.7-4.9-26.7c-0.7-15.2-0.8-19.7-0.8-58.1s0.1-42.9,0.8-58.1c0.6-14,2.9-21.6,4.9-26.7c2.6-6.7,5.6-11.5,10.6-16.5    c4.9-5,9.6-8.1,16.2-10.7c5-2,12.5-4.3,26.2-4.9C214.4,138.5,218.9,138.3,256.6,138.3 M256.6,112.4c-38.4,0-43.2,0.2-58.2,0.9    c-15,0.7-25.3,3.1-34.3,6.7c-9.3,3.7-17.2,8.6-25,16.6c-7.9,8-12.7,16-16.3,25.5c-3.5,9.1-5.9,19.6-6.6,34.9    c-0.7,15.3-0.8,20.2-0.8,59.2c0,39,0.2,43.9,0.8,59.2c0.7,15.3,3.1,25.7,6.6,34.9c3.6,9.4,8.4,17.5,16.3,25.5    c7.9,8,15.7,12.9,25,16.6c9,3.6,19.3,6,34.3,6.7c15.1,0.7,19.9,0.9,58.2,0.9s43.2-0.2,58.2-0.9c15-0.7,25.3-3.1,34.3-6.7    c9.3-3.7,17.2-8.6,25-16.6c7.9-8,12.7-16,16.3-25.5c3.5-9.1,5.9-19.6,6.6-34.9c0.7-15.3,0.8-20.2,0.8-59.2s-0.2-43.9-0.8-59.2    c-0.7-15.3-3.1-25.7-6.6-34.9c-3.6-9.4-8.4-17.5-16.3-25.5c-7.9-8-15.7-12.9-25-16.6c-9-3.6-19.3-6-34.3-6.7    C299.8,112.6,294.9,112.4,256.6,112.4L256.6,112.4z"/><path class="st1" d="M256.6,182.3c-40.1,0-72.5,33-72.5,73.8s32.5,73.8,72.5,73.8s72.5-33,72.5-73.8S296.6,182.3,256.6,182.3z     M256.6,304c-26,0-47.1-21.4-47.1-47.9s21.1-47.9,47.1-47.9c26,0,47.1,21.4,47.1,47.9S282.6,304,256.6,304z"/><ellipse class="st1" cx="332" cy="179.4" rx="16.9" ry="17.2"/></g></g></svg>