<?xml version="1.0" encoding="utf-8"?>
<svg viewBox="0 0 2500 2500" xmlns="http://www.w3.org/2000/svg">
  <defs>
    <radialGradient id="a" cx="332.14" cy="2511.81" r="3263.54" gradientUnits="userSpaceOnUse" gradientTransform="matrix(0.868967, 0, 0, 0.885968, 158.70452, 146.077438)">
      <stop offset="0.09" stop-color="#fa8f21"/>
      <stop offset="0.78" stop-color="#d82d7e"/>
    </radialGradient>
    <radialGradient id="b" cx="1516.14" cy="2623.81" r="2572.12" gradientUnits="userSpaceOnUse" gradientTransform="matrix(0.868967, 0, 0, 0.885968, 158.70452, 146.077438)">
      <stop offset="0.64" stop-color="#8c3aaa" stop-opacity="0"/>
      <stop offset="1" stop-color="#8c3aaa"/>
    </radialGradient>
  </defs>
  <path d="M 882.901 1253.537 C 882.901 1049.667 1044.955 884.354 1244.913 884.354 C 1444.871 884.354 1607.012 1049.667 1607.012 1253.537 C 1607.012 1457.407 1444.871 1622.72 1244.913 1622.72 C 1044.955 1622.72 882.901 1457.407 882.901 1253.537 M 687.158 1253.537 C 687.158 1567.612 936.864 1822.204 1244.913 1822.204 C 1552.962 1822.204 1802.669 1567.612 1802.669 1253.537 C 1802.669 939.461 1552.962 684.87 1244.913 684.87 C 936.864 684.87 687.158 939.461 687.158 1253.537 M 1694.404 662.322 C 1694.364 764.624 1802.96 828.608 1889.876 777.492 C 1976.793 726.376 1976.843 598.498 1889.967 547.311 C 1870.156 535.639 1847.682 529.489 1824.801 529.48 L 1824.749 529.48 C 1752.796 529.514 1694.466 588.961 1694.404 662.322 M 806.085 2154.983 C 700.184 2150.065 642.623 2132.08 604.371 2116.886 C 553.658 2096.757 517.475 2072.783 479.431 2034.048 C 441.388 1995.313 417.839 1958.457 398.183 1906.752 C 383.271 1867.77 365.631 1809.065 360.817 1701.092 C 355.551 1584.357 354.5 1549.291 354.5 1253.546 C 354.5 957.801 355.638 922.832 360.817 805.999 C 365.64 698.026 383.41 639.437 398.183 600.339 C 417.926 548.634 441.44 511.743 479.431 472.955 C 517.422 434.167 553.571 410.158 604.371 390.117 C 642.606 374.914 700.184 356.929 806.085 352.02 C 920.58 346.651 954.974 345.579 1244.913 345.579 C 1534.853 345.579 1569.281 346.74 1683.872 352.02 C 1789.773 356.937 1847.238 375.055 1885.585 390.117 C 1936.298 410.158 1972.482 434.22 2010.526 472.955 C 2048.569 511.689 2072.031 548.634 2091.774 600.339 C 2106.685 639.322 2124.326 698.026 2129.14 805.999 C 2134.406 922.832 2135.457 957.801 2135.457 1253.546 C 2135.457 1549.291 2134.406 1584.26 2129.14 1701.092 C 2124.317 1809.065 2106.59 1867.752 2091.774 1906.752 C 2072.031 1958.457 2048.517 1995.349 2010.526 2034.048 C 1972.534 2072.747 1936.298 2096.757 1885.585 2116.886 C 1847.351 2132.089 1789.773 2150.074 1683.872 2154.983 C 1569.377 2160.352 1534.983 2161.424 1244.913 2161.424 C 954.843 2161.424 920.545 2160.352 806.085 2154.983 M 797.091 152.784 C 681.457 158.153 602.442 176.847 533.437 204.223 C 461.974 232.494 401.476 270.423 341.022 331.962 C 280.568 393.501 243.463 455.28 215.734 528.142 C 188.883 598.541 170.548 679.058 165.282 796.953 C 159.929 915.035 158.704 952.786 158.704 1253.537 C 158.704 1554.288 159.929 1592.039 165.282 1710.12 C 170.548 1828.025 188.883 1908.533 215.734 1978.932 C 243.463 2051.75 280.577 2113.599 341.022 2175.112 C 401.467 2236.625 461.974 2274.5 533.437 2302.851 C 602.573 2330.227 681.457 2348.921 797.091 2354.29 C 912.968 2359.659 949.934 2360.997 1244.913 2360.997 C 1539.893 2360.997 1576.92 2359.747 1692.736 2354.29 C 1808.378 2348.921 1887.341 2330.227 1956.389 2302.851 C 2027.809 2274.5 2088.35 2236.651 2148.804 2175.112 C 2209.258 2113.572 2246.285 2051.75 2274.092 1978.932 C 2300.943 1908.533 2319.365 1828.016 2324.544 1710.12 C 2329.81 1591.95 2331.035 1554.288 2331.035 1253.537 C 2331.035 952.786 2329.81 915.035 2324.544 796.953 C 2319.278 679.049 2300.943 598.497 2274.092 528.142 C 2246.285 455.324 2209.163 393.599 2148.804 331.962 C 2088.446 270.325 2027.809 232.494 1956.476 204.223 C 1887.341 176.847 1808.369 158.064 1692.822 152.784 C 1577.006 147.415 1539.98 146.077 1245 146.077 C 950.02 146.077 912.968 147.326 797.091 152.784" fill="url(#a)" style=""/>
  <path d="M 882.901 1253.537 C 882.901 1049.667 1044.955 884.354 1244.913 884.354 C 1444.871 884.354 1607.012 1049.667 1607.012 1253.537 C 1607.012 1457.407 1444.871 1622.72 1244.913 1622.72 C 1044.955 1622.72 882.901 1457.407 882.901 1253.537 M 687.158 1253.537 C 687.158 1567.612 936.864 1822.204 1244.913 1822.204 C 1552.962 1822.204 1802.669 1567.612 1802.669 1253.537 C 1802.669 939.461 1552.962 684.87 1244.913 684.87 C 936.864 684.87 687.158 939.461 687.158 1253.537 M 1694.404 662.322 C 1694.364 764.624 1802.96 828.608 1889.876 777.492 C 1976.793 726.376 1976.843 598.498 1889.967 547.311 C 1870.156 535.639 1847.682 529.489 1824.801 529.48 L 1824.749 529.48 C 1752.796 529.514 1694.466 588.961 1694.404 662.322 M 806.085 2154.983 C 700.184 2150.065 642.623 2132.08 604.371 2116.886 C 553.658 2096.757 517.475 2072.783 479.431 2034.048 C 441.388 1995.313 417.839 1958.457 398.183 1906.752 C 383.271 1867.77 365.631 1809.065 360.817 1701.092 C 355.551 1584.357 354.5 1549.291 354.5 1253.546 C 354.5 957.801 355.638 922.832 360.817 805.999 C 365.64 698.026 383.41 639.437 398.183 600.339 C 417.926 548.634 441.44 511.743 479.431 472.955 C 517.422 434.167 553.571 410.158 604.371 390.117 C 642.606 374.914 700.184 356.929 806.085 352.02 C 920.58 346.651 954.974 345.579 1244.913 345.579 C 1534.853 345.579 1569.281 346.74 1683.872 352.02 C 1789.773 356.937 1847.238 375.055 1885.585 390.117 C 1936.298 410.158 1972.482 434.22 2010.526 472.955 C 2048.569 511.689 2072.031 548.634 2091.774 600.339 C 2106.685 639.322 2124.326 698.026 2129.14 805.999 C 2134.406 922.832 2135.457 957.801 2135.457 1253.546 C 2135.457 1549.291 2134.406 1584.26 2129.14 1701.092 C 2124.317 1809.065 2106.59 1867.752 2091.774 1906.752 C 2072.031 1958.457 2048.517 1995.349 2010.526 2034.048 C 1972.534 2072.747 1936.298 2096.757 1885.585 2116.886 C 1847.351 2132.089 1789.773 2150.074 1683.872 2154.983 C 1569.377 2160.352 1534.983 2161.424 1244.913 2161.424 C 954.843 2161.424 920.545 2160.352 806.085 2154.983 M 797.091 152.784 C 681.457 158.153 602.442 176.847 533.437 204.223 C 461.974 232.494 401.476 270.423 341.022 331.962 C 280.568 393.501 243.463 455.28 215.734 528.142 C 188.883 598.541 170.548 679.058 165.282 796.953 C 159.929 915.035 158.704 952.786 158.704 1253.537 C 158.704 1554.288 159.929 1592.039 165.282 1710.12 C 170.548 1828.025 188.883 1908.533 215.734 1978.932 C 243.463 2051.75 280.577 2113.599 341.022 2175.112 C 401.467 2236.625 461.974 2274.5 533.437 2302.851 C 602.573 2330.227 681.457 2348.921 797.091 2354.29 C 912.968 2359.659 949.934 2360.997 1244.913 2360.997 C 1539.893 2360.997 1576.92 2359.747 1692.736 2354.29 C 1808.378 2348.921 1887.341 2330.227 1956.389 2302.851 C 2027.809 2274.5 2088.35 2236.651 2148.804 2175.112 C 2209.258 2113.572 2246.285 2051.75 2274.092 1978.932 C 2300.943 1908.533 2319.365 1828.016 2324.544 1710.12 C 2329.81 1591.95 2331.035 1554.288 2331.035 1253.537 C 2331.035 952.786 2329.81 915.035 2324.544 796.953 C 2319.278 679.049 2300.943 598.497 2274.092 528.142 C 2246.285 455.324 2209.163 393.599 2148.804 331.962 C 2088.446 270.325 2027.809 232.494 1956.476 204.223 C 1887.341 176.847 1808.369 158.064 1692.822 152.784 C 1577.006 147.415 1539.98 146.077 1245 146.077 C 950.02 146.077 912.968 147.326 797.091 152.784" fill="url(#b)" style=""/>
</svg>