<?xml version="1.0" encoding="UTF-8"?>
<svg xmlns="http://www.w3.org/2000/svg" xmlns:xlink="http://www.w3.org/1999/xlink" width="67pt" height="67pt" viewBox="0 0 67 67" version="1.1">
<defs>
<radialGradient id="radial0" gradientUnits="userSpaceOnUse" cx="332.14" cy="2511.81" fx="332.14" fy="2511.81" r="3263.54" gradientTransform="matrix(0.0268,0,0,0.0268,0,0)">
<stop offset="0.09" style="stop-color:rgb(98.039216%,56.078431%,12.941176%);stop-opacity:1;"/>
<stop offset="0.78" style="stop-color:rgb(84.705882%,17.647059%,49.411765%);stop-opacity:1;"/>
</radialGradient>
<radialGradient id="radial1" gradientUnits="userSpaceOnUse" cx="1516.14" cy="2623.81" fx="1516.14" fy="2623.81" r="2572.12" gradientTransform="matrix(0.0268,0,0,0.0268,0,0)">
<stop offset="0.64" style="stop-color:rgb(54.901961%,22.745098%,66.666667%);stop-opacity:0;"/>
<stop offset="1" style="stop-color:rgb(54.901961%,22.745098%,66.666667%);stop-opacity:1;"/>
</radialGradient>
</defs>
<g id="surface1">
<path style=" stroke:none;fill-rule:nonzero;fill:url(#radial0);" d="M 22.335938 33.5 C 22.335938 27.328125 27.328125 22.332031 33.5 22.332031 C 39.671875 22.332031 44.667969 27.328125 44.667969 33.5 C 44.667969 39.671875 39.671875 44.667969 33.5 44.667969 C 27.328125 44.667969 22.335938 39.671875 22.335938 33.5 M 16.296875 33.5 C 16.296875 43 24 50.703125 33.5 50.703125 C 43 50.703125 50.703125 43 50.703125 33.5 C 50.703125 24 43 16.296875 33.5 16.296875 C 24 16.296875 16.296875 24 16.296875 33.5 M 47.363281 15.617188 C 43.054688 14.695312 40.304688 10.449219 41.226562 6.136719 C 42.144531 1.824219 46.390625 -0.921875 50.703125 0 C 51.945312 -0.71875 53.476562 -0.71875 54.71875 0 M 19.96875 60.769531 C 16.699219 60.621094 14.925781 60.078125 13.746094 59.613281 C 12.183594 59.003906 11.0625 58.285156 9.894531 57.105469 C 8.714844 55.9375 7.988281 54.824219 7.386719 53.261719 C 6.929688 52.082031 6.378906 50.300781 6.234375 47.039062 C 6.070312 43.503906 6.039062 42.445312 6.039062 33.5 C 6.039062 24.554688 6.070312 23.496094 6.234375 19.960938 C 6.378906 16.699219 6.929688 14.925781 7.386719 13.738281 C 7.996094 12.175781 8.722656 11.0625 9.894531 9.886719 C 11.0625 8.714844 12.175781 7.988281 13.746094 7.378906 C 14.925781 6.921875 16.699219 6.378906 19.96875 6.230469 C 23.496094 6.066406 24.554688 6.03125 33.5 6.03125 C 42.445312 6.03125 43.503906 6.070312 47.039062 6.230469 C 50.300781 6.378906 52.074219 6.929688 53.261719 7.378906 C 54.824219 7.988281 55.9375 8.714844 57.113281 9.886719 C 58.285156 11.058594 59.011719 12.175781 59.621094 13.738281 C 60.078125 14.917969 60.621094 16.699219 60.769531 19.960938 C 60.933594 23.496094 60.96875 24.554688 60.96875 33.5 C 60.96875 42.445312 60.933594 43.503906 60.769531 47.039062 C 60.621094 50.300781 60.078125 52.082031 59.621094 53.261719 C 59.011719 54.824219 58.285156 55.941406 57.113281 57.105469 C 55.941406 58.277344 54.824219 59.003906 53.261719 59.613281 C 52.082031 60.078125 50.300781 60.621094 47.039062 60.769531 C 43.503906 60.929688 42.445312 60.960938 33.5 60.960938 C 24.554688 60.960938 23.496094 60.929688 19.96875 60.769531 M 19.6875 0.203125 C 16.121094 0.367188 13.6875 0.929688 11.554688 1.761719 C 9.355469 2.617188 7.484375 3.761719 5.621094 5.621094 C 3.753906 7.484375 2.617188 9.355469 1.761719 11.554688 C 0.929688 13.6875 0.367188 16.121094 0.203125 19.6875 C 0.0390625 23.261719 0 24.40625 0 33.5 C 0 42.59375 0.0390625 43.738281 0.203125 47.3125 C 0.367188 50.878906 0.929688 53.3125 1.761719 55.445312 C 2.617188 57.644531 3.753906 59.515625 5.621094 61.378906 C 7.484375 63.238281 9.355469 64.382812 11.554688 65.238281 C 13.6875 66.070312 16.121094 66.632812 19.6875 66.796875 C 23.261719 66.960938 24.40625 67 33.5 67 C 42.59375 67 43.738281 66.960938 47.3125 66.796875 C 50.878906 66.632812 53.3125 66.070312 55.445312 65.238281 C 57.644531 64.382812 59.515625 63.238281 61.378906 61.378906 C 63.246094 59.515625 64.382812 57.644531 65.238281 55.445312 C 66.070312 53.3125 66.640625 50.878906 66.796875 47.3125 C 66.960938 43.738281 67 42.59375 67 33.5 C 67 24.40625 66.960938 23.261719 66.796875 19.6875 C 66.632812 16.121094 66.070312 13.6875 65.238281 11.554688 C 64.382812 9.355469 63.238281 7.484375 61.378906 5.621094 C 59.515625 3.753906 57.644531 2.617188 55.445312 1.761719 C 53.3125 0.929688 50.878906 0.359375 47.3125 0.203125 C 43.738281 0.0390625 42.601562 0 33.5 0 C 24.40625 0 23.261719 0.0390625 19.6875 0.203125 "/>
<path style=" stroke:none;fill-rule:nonzero;fill:url(#radial1);" d="M 22.335938 33.5 C 22.335938 27.328125 27.328125 22.332031 33.5 22.332031 C 39.671875 22.332031 44.667969 27.328125 44.667969 33.5 C 44.667969 39.671875 39.671875 44.667969 33.5 44.667969 C 27.328125 44.667969 22.335938 39.671875 22.335938 33.5 M 16.296875 33.5 C 16.296875 43 24 50.703125 33.5 50.703125 C 43 50.703125 50.703125 43 50.703125 33.5 C 50.703125 24 43 16.296875 33.5 16.296875 C 24 16.296875 16.296875 24 16.296875 33.5 M 47.363281 15.617188 C 43.054688 14.695312 40.304688 10.449219 41.226562 6.136719 C 42.144531 1.824219 46.390625 -0.921875 50.703125 0 C 51.945312 -0.71875 53.476562 -0.71875 54.71875 0 M 19.96875 60.769531 C 16.699219 60.621094 14.925781 60.078125 13.746094 59.613281 C 12.183594 59.003906 11.0625 58.285156 9.894531 57.105469 C 8.714844 55.9375 7.988281 54.824219 7.386719 53.261719 C 6.929688 52.082031 6.378906 50.300781 6.234375 47.039062 C 6.070312 43.503906 6.039062 42.445312 6.039062 33.5 C 6.039062 24.554688 6.070312 23.496094 6.234375 19.960938 C 6.378906 16.699219 6.929688 14.925781 7.386719 13.738281 C 7.996094 12.175781 8.722656 11.0625 9.894531 9.886719 C 11.0625 8.714844 12.175781 7.988281 13.746094 7.378906 C 14.925781 6.921875 16.699219 6.378906 19.96875 6.230469 C 23.496094 6.066406 24.554688 6.03125 33.5 6.03125 C 42.445312 6.03125 43.503906 6.070312 47.039062 6.230469 C 50.300781 6.378906 52.074219 6.929688 53.261719 7.378906 C 54.824219 7.988281 55.9375 8.714844 57.113281 9.886719 C 58.285156 11.058594 59.011719 12.175781 59.621094 13.738281 C 60.078125 14.917969 60.621094 16.699219 60.769531 19.960938 C 60.933594 23.496094 60.96875 24.554688 60.96875 33.5 C 60.96875 42.445312 60.933594 43.503906 60.769531 47.039062 C 60.621094 50.300781 60.078125 52.082031 59.621094 53.261719 C 59.011719 54.824219 58.285156 55.941406 57.113281 57.105469 C 55.941406 58.277344 54.824219 59.003906 53.261719 59.613281 C 52.082031 60.078125 50.300781 60.621094 47.039062 60.769531 C 43.503906 60.929688 42.445312 60.960938 33.5 60.960938 C 24.554688 60.960938 23.496094 60.929688 19.96875 60.769531 M 19.6875 0.203125 C 16.121094 0.367188 13.6875 0.929688 11.554688 1.761719 C 9.355469 2.617188 7.484375 3.761719 5.621094 5.621094 C 3.753906 7.484375 2.617188 9.355469 1.761719 11.554688 C 0.929688 13.6875 0.367188 16.121094 0.203125 19.6875 C 0.0390625 23.261719 0 24.40625 0 33.5 C 0 42.59375 0.0390625 43.738281 0.203125 47.3125 C 0.367188 50.878906 0.929688 53.3125 1.761719 55.445312 C 2.617188 57.644531 3.753906 59.515625 5.621094 61.378906 C 7.484375 63.238281 9.355469 64.382812 11.554688 65.238281 C 13.6875 66.070312 16.121094 66.632812 19.6875 66.796875 C 23.261719 66.960938 24.40625 67 33.5 67 C 42.59375 67 43.738281 66.960938 47.3125 66.796875 C 50.878906 66.632812 53.3125 66.070312 55.445312 65.238281 C 57.644531 64.382812 59.515625 63.238281 61.378906 61.378906 C 63.246094 59.515625 64.382812 57.644531 65.238281 55.445312 C 66.070312 53.3125 66.640625 50.878906 66.796875 47.3125 C 66.960938 43.738281 67 42.59375 67 33.5 C 67 24.40625 66.960938 23.261719 66.796875 19.6875 C 66.632812 16.121094 66.070312 13.6875 65.238281 11.554688 C 64.382812 9.355469 63.238281 7.484375 61.378906 5.621094 C 59.515625 3.753906 57.644531 2.617188 55.445312 1.761719 C 53.3125 0.929688 50.878906 0.359375 47.3125 0.203125 C 43.738281 0.0390625 42.601562 0 33.5 0 C 24.40625 0 23.261719 0.0390625 19.6875 0.203125 "/>
</g>
</svg>
