<?xml version="1.0" encoding="UTF-8" standalone="no"?>
<svg
   viewBox="0 0 200 200"
   width="200"
   height="200"
   version="1.1"
   id="svg158"
   sodipodi:docname="instagram-icon2.svg"
   inkscape:version="1.2 (dc2aedaf03, 2022-05-15)"
   xmlns:inkscape="http://www.inkscape.org/namespaces/inkscape"
   xmlns:sodipodi="http://sodipodi.sourceforge.net/DTD/sodipodi-0.dtd"
   xmlns="http://www.w3.org/2000/svg"
   xmlns:svg="http://www.w3.org/2000/svg">
  <sodipodi:namedview
     id="namedview160"
     pagecolor="#ffffff"
     bordercolor="#666666"
     borderopacity="1.0"
     inkscape:showpageshadow="2"
     inkscape:pageopacity="0.0"
     inkscape:pagecheckerboard="0"
     inkscape:deskcolor="#d1d1d1"
     showgrid="false"
     inkscape:zoom="2.61913"
     inkscape:cx="42.189582"
     inkscape:cy="99.269606"
     inkscape:window-width="1366"
     inkscape:window-height="705"
     inkscape:window-x="-8"
     inkscape:window-y="-8"
     inkscape:window-maximized="1"
     inkscape:current-layer="svg158" />
  <defs
     id="defs152">
    <radialGradient
       id="a"
       cx="332.14001"
       cy="2511.8101"
       r="3263.54"
       gradientUnits="userSpaceOnUse"
       gradientTransform="matrix(0.07950527,0,0,0.08026595,0.81876833,0.06087689)">
      <stop
         offset=".09"
         stop-color="#fa8f21"
         id="stop142" />
      <stop
         offset=".78"
         stop-color="#d82d7e"
         id="stop144" />
    </radialGradient>
    <radialGradient
       id="b"
       cx="1516.14"
       cy="2623.8101"
       r="2572.1201"
       gradientUnits="userSpaceOnUse"
       gradientTransform="matrix(0.07950527,0,0,0.08026595,0.81876833,0.06087689)">
      <stop
         offset=".64"
         stop-color="#8c3aaa"
         stop-opacity="0"
         id="stop147" />
      <stop
         offset="1"
         stop-color="#8c3aaa"
         id="stop149" />
    </radialGradient>
  </defs>
  <path
     d="m 67.078183,100.3933 c 0,-18.469857 14.827079,-33.446813 33.122427,-33.446813 18.29467,0 33.1297,14.976956 33.1297,33.446813 0,18.46987 -14.83503,33.44682 -33.1297,33.44682 -18.295348,0 -33.122427,-14.97695 -33.122427,-33.44682 m -17.909096,0 c 0,28.45429 22.846153,51.51938 51.031523,51.51938 28.18469,0 51.03084,-23.06509 51.03084,-51.51938 0,-28.45494 -22.84615,-51.519359 -51.03084,-51.519359 -28.18537,0 -51.031523,23.064419 -51.031523,51.519359 M 141.3262,46.831174 a 11.925787,12.039888 0 1 0 11.93056,-12.03521 v 0 a 11.931352,12.045507 0 0 0 -11.92593,12.03521 M 60.054864,182.06123 c -9.689274,-0.44815 -14.955605,-2.07487 -18.45567,-3.45143 -4.63959,-1.82338 -7.950176,-3.99525 -11.431026,-7.50487 -3.48019,-3.50896 -5.635351,-6.84802 -7.433416,-11.53221 -1.364116,-3.5317 -2.978665,-8.84999 -3.419237,-18.6324 -0.483636,-10.57571 -0.576389,-13.7529 -0.576389,-40.54635 0,-26.793436 0.106011,-29.961266 0.576389,-40.546336 0.443886,-9.781743 2.067046,-15.089998 3.419237,-18.632401 1.806017,-4.683518 3.957201,-8.025925 7.433416,-11.540236 3.476214,-3.51431 6.783487,-5.689518 11.431026,-7.504865 3.49874,-1.377899 8.766396,-3.006629 18.45567,-3.451437 10.475682,-0.481595 13.622628,-0.581928 40.150376,-0.581928 26.52775,0 29.67801,0.107016 40.1623,0.581928 9.68928,0.448152 14.94699,2.086915 18.45501,3.451437 4.64025,1.815347 7.95084,3.995905 11.43169,7.504865 3.48085,3.508959 5.6274,6.856718 7.43342,11.540236 1.36478,3.53237 2.97866,8.850658 3.41857,18.632401 0.48363,10.58507 0.57639,13.7529 0.57639,40.546336 0,26.79345 -0.0993,29.96128 -0.57639,40.54635 -0.44389,9.78241 -2.06241,15.09869 -3.41857,18.6324 -1.80602,4.68419 -3.95721,8.0266 -7.43342,11.53221 -3.47622,3.50628 -6.79144,5.68149 -11.43169,7.50487 -3.49742,1.37789 -8.76573,3.0073 -18.45501,3.45143 -10.47634,0.4816 -13.62263,0.58193 -40.1623,0.58193 -26.539675,0 -29.677343,-0.0936 -40.150376,-0.58193 M 59.232023,0.66822254 C 48.652988,1.1498184 41.422966,2.8481122 35.109201,5.3289985 28.570844,7.8901507 23.036197,11.326202 17.5042,16.901341 11.973527,22.477149 8.5781404,28.073691 6.0413713,34.674896 3.584767,41.052694 1.9072799,48.34753 1.4249692,59.028252 0.93470839,69.725696 0.82208101,73.146363 0.82208101,100.3933 c 0,27.24695 0.11262666,30.66762 0.60288819,41.36506 0.4836356,10.68206 2.1597978,17.97623 4.6164021,24.35336 2.5367691,6.59719 5.9328187,12.20042 11.4628287,17.77356 5.530672,5.5734 11.066644,9.0041 17.605001,11.57327 6.325689,2.47955 13.543787,4.17317 24.122822,4.66011 10.60222,0.4816 13.984358,0.60868 40.973217,0.60868 26.98886,0 30.37695,-0.11371 40.97322,-0.60868 10.58036,-0.48159 17.80508,-2.18056 24.12282,-4.66011 6.53438,-2.56917 12.073,-5.99788 17.60434,-11.57327 5.53133,-5.57581 8.91943,-11.17637 11.46349,-17.77356 2.4566,-6.37713 4.14204,-13.67197 4.61574,-24.35336 0.48364,-10.70547 0.59626,-14.11811 0.59626,-41.36506 0,-27.246937 -0.11262,-30.667604 -0.59626,-41.365048 C 198.50121,48.346193 196.82571,41.04935 194.36911,34.674896 191.82505,28.077705 188.42834,22.485844 182.90562,16.901341 177.38356,11.317507 171.83566,7.8901507 165.30923,5.3289985 158.98354,2.8481122 151.75816,1.1464737 141.18641,0.66822254 130.59015,0.18662666 127.20205,0.05953991 100.21319,0.05953991 c -26.988859,0 -30.378947,0.10702743 -40.981167,0.60868263"
     fill="url(#a)"
     id="path154"
     style="display:inline;fill:url(#a);stroke-width:0.999999"
     inkscape:transform-center-x="-364.25114"
     inkscape:transform-center-y="944.9193" />
  <path
     d="m 67.078183,100.3933 c 0,-18.469857 14.827079,-33.446813 33.122427,-33.446813 18.29467,0 33.1297,14.976956 33.1297,33.446813 0,18.46987 -14.83503,33.44682 -33.1297,33.44682 -18.295348,0 -33.122427,-14.97695 -33.122427,-33.44682 m -17.909096,0 c 0,28.45429 22.846153,51.51938 51.031523,51.51938 28.18469,0 51.03084,-23.06509 51.03084,-51.51938 0,-28.45494 -22.84615,-51.519359 -51.03084,-51.519359 -28.18537,0 -51.031523,23.064419 -51.031523,51.519359 M 141.3262,46.831174 a 11.925787,12.039888 0 1 0 11.93056,-12.03521 v 0 a 11.931352,12.045507 0 0 0 -11.92593,12.03521 M 60.054864,182.06123 c -9.689274,-0.44815 -14.955605,-2.07487 -18.45567,-3.45143 -4.63959,-1.82338 -7.950176,-3.99525 -11.431026,-7.50487 -3.48019,-3.50896 -5.635351,-6.84802 -7.433416,-11.53221 -1.364116,-3.5317 -2.978665,-8.84999 -3.419237,-18.6324 -0.483636,-10.57571 -0.576389,-13.7529 -0.576389,-40.54635 0,-26.793436 0.106011,-29.961266 0.576389,-40.546336 0.443886,-9.781743 2.067046,-15.089998 3.419237,-18.632401 1.806017,-4.683518 3.957201,-8.025925 7.433416,-11.540236 3.476214,-3.51431 6.783487,-5.689518 11.431026,-7.504865 3.49874,-1.377899 8.766396,-3.006629 18.45567,-3.451437 10.475682,-0.481595 13.622628,-0.581928 40.150376,-0.581928 26.52775,0 29.67801,0.107016 40.1623,0.581928 9.68928,0.448152 14.94699,2.086915 18.45501,3.451437 4.64025,1.815347 7.95084,3.995905 11.43169,7.504865 3.48085,3.508959 5.6274,6.856718 7.43342,11.540236 1.36478,3.53237 2.97866,8.850658 3.41857,18.632401 0.48363,10.58507 0.57639,13.7529 0.57639,40.546336 0,26.79345 -0.0993,29.96128 -0.57639,40.54635 -0.44389,9.78241 -2.06241,15.09869 -3.41857,18.6324 -1.80602,4.68419 -3.95721,8.0266 -7.43342,11.53221 -3.47622,3.50628 -6.79144,5.68149 -11.43169,7.50487 -3.49742,1.37789 -8.76573,3.0073 -18.45501,3.45143 -10.47634,0.4816 -13.62263,0.58193 -40.1623,0.58193 -26.539675,0 -29.677343,-0.0936 -40.150376,-0.58193 M 59.232023,0.66822254 C 48.652988,1.1498184 41.422966,2.8481122 35.109201,5.3289985 28.570844,7.8901507 23.036197,11.326202 17.5042,16.901341 11.973527,22.477149 8.5781404,28.073691 6.0413713,34.674896 3.584767,41.052694 1.9072799,48.34753 1.4249692,59.028252 0.93470839,69.725696 0.82208101,73.146363 0.82208101,100.3933 c 0,27.24695 0.11262666,30.66762 0.60288819,41.36506 0.4836356,10.68206 2.1597978,17.97623 4.6164021,24.35336 2.5367691,6.59719 5.9328187,12.20042 11.4628287,17.77356 5.530672,5.5734 11.066644,9.0041 17.605001,11.57327 6.325689,2.47955 13.543787,4.17317 24.122822,4.66011 10.60222,0.4816 13.984358,0.60868 40.973217,0.60868 26.98886,0 30.37695,-0.11371 40.97322,-0.60868 10.58036,-0.48159 17.80508,-2.18056 24.12282,-4.66011 6.53438,-2.56917 12.073,-5.99788 17.60434,-11.57327 5.53133,-5.57581 8.91943,-11.17637 11.46349,-17.77356 2.4566,-6.37713 4.14204,-13.67197 4.61574,-24.35336 0.48364,-10.70547 0.59626,-14.11811 0.59626,-41.36506 0,-27.246937 -0.11262,-30.667604 -0.59626,-41.365048 C 198.50121,48.346193 196.82571,41.04935 194.36911,34.674896 191.82505,28.077705 188.42834,22.485844 182.90562,16.901341 177.38356,11.317507 171.83566,7.8901507 165.30923,5.3289985 158.98354,2.8481122 151.75816,1.1464737 141.18641,0.66822254 130.59015,0.18662666 127.20205,0.05953991 100.21319,0.05953991 c -26.988859,0 -30.378947,0.10702743 -40.981167,0.60868263"
     fill="url(#b)"
     id="path156"
     style="display:inline;fill:url(#b);stroke-width:0.999999"
     inkscape:transform-center-x="-364.25114"
     inkscape:transform-center-y="944.9193" />
</svg>
