<?xml version="1.0" encoding="UTF-8" standalone="no"?>
<svg
   viewBox="0 0 50 50"
   width="50"
   height="50"
   version="1.1"
   id="svg158"
   sodipodi:docname="instagram-icon-50-50.svg"
   inkscape:version="1.2 (dc2aedaf03, 2022-05-15)"
   inkscape:export-filename="instagram-icon-50-50.png"
   inkscape:export-xdpi="96"
   inkscape:export-ydpi="96"
   xmlns:inkscape="http://www.inkscape.org/namespaces/inkscape"
   xmlns:sodipodi="http://sodipodi.sourceforge.net/DTD/sodipodi-0.dtd"
   xmlns="http://www.w3.org/2000/svg"
   xmlns:svg="http://www.w3.org/2000/svg">
  <sodipodi:namedview
     id="namedview160"
     pagecolor="#ffffff"
     bordercolor="#666666"
     borderopacity="1.0"
     inkscape:showpageshadow="2"
     inkscape:pageopacity="0.0"
     inkscape:pagecheckerboard="0"
     inkscape:deskcolor="#d1d1d1"
     showgrid="false"
     inkscape:zoom="2.61913"
     inkscape:cx="22.144758"
     inkscape:cy="85.142777"
     inkscape:window-width="1366"
     inkscape:window-height="705"
     inkscape:window-x="-8"
     inkscape:window-y="-8"
     inkscape:window-maximized="1"
     inkscape:current-layer="svg158"
     showguides="false" />
  <defs
     id="defs152">
    <radialGradient
       id="a"
       cx="332.14001"
       cy="2511.8101"
       r="3263.54"
       gradientUnits="userSpaceOnUse"
       gradientTransform="matrix(0.01800037,0,0,0.01799974,2.6393927,2.2961174)">
      <stop
         offset=".09"
         stop-color="#fa8f21"
         id="stop142" />
      <stop
         offset=".78"
         stop-color="#d82d7e"
         id="stop144" />
    </radialGradient>
    <radialGradient
       id="b"
       cx="1516.14"
       cy="2623.8101"
       r="2572.1201"
       gradientUnits="userSpaceOnUse"
       gradientTransform="matrix(0.01800037,0,0,0.01799974,2.6393927,2.2961174)">
      <stop
         offset=".64"
         stop-color="#8c3aaa"
         stop-opacity="0"
         id="stop147" />
      <stop
         offset="1"
         stop-color="#8c3aaa"
         id="stop149" />
    </radialGradient>
  </defs>
  <path
     d="m 17.640844,24.795784 c 0,-4.141886 3.356921,-7.500487 7.499077,-7.500487 4.142001,0 7.500722,3.358601 7.500722,7.500487 0,4.14189 -3.358721,7.500487 -7.500722,7.500487 -4.142156,0 -7.499077,-3.358597 -7.499077,-7.500487 m -4.054706,0 c 0,6.38091 5.172478,11.553289 11.553783,11.553289 6.38115,0 11.553627,-5.172379 11.553627,-11.553289 0,-6.381053 -5.172477,-11.553277 -11.553627,-11.553277 -6.381305,0 -11.553783,5.172224 -11.553783,11.553277 m 20.864814,-12.01137 a 2.7000557,2.6999597 0 1 0 2.701136,-2.698911 v 0 A 2.7013156,2.7012197 0 0 0 34.452,12.784414 M 16.05073,43.109918 C 13.857032,43.009455 12.664709,42.644628 11.872278,42.335929 10.821852,41.927037 10.07232,41.43999 9.284238,40.652951 8.496307,39.86607 8.008368,39.117281 7.6012771,38.066846 7.2924346,37.274857 6.926893,36.082222 6.8271453,33.888506 6.7176479,31.516894 6.6966481,30.804397 6.6966481,24.795941 c 0,-6.008465 0.024002,-6.718855 0.1304972,-9.09257 C 6.9276432,13.509803 7.2951344,12.31942 7.6012771,11.525033 8.010168,10.474747 8.497206,9.7252082 9.284238,8.9371191 c 0.787032,-0.788088 1.535814,-1.27588 2.58804,-1.6829748 0.792131,-0.3089948 1.984754,-0.6742395 4.178452,-0.7739888 2.371745,-0.1079996 3.084228,-0.1304977 9.090239,-0.1304977 6.00601,0 6.719244,0.023996 9.092938,0.1304977 2.1937,0.1004966 3.384071,0.4679933 4.178303,0.7739888 1.050575,0.4070948 1.800109,0.8960873 2.588189,1.6829748 0.788082,0.7868895 1.274071,1.5376279 1.682962,2.5879139 0.308994,0.792137 0.674384,1.98477 0.773981,4.178338 0.109497,2.373715 0.130498,3.084105 0.130498,9.09257 0,6.008456 -0.02248,6.718849 -0.130498,9.092565 -0.100495,2.193716 -0.466939,3.385901 -0.773981,4.17834 -0.408891,1.050435 -0.895931,1.799977 -1.682962,2.586105 -0.787033,0.786297 -1.537614,1.274086 -2.588189,1.682978 -0.791833,0.308992 -1.984603,0.674392 -4.178303,0.773989 -2.371894,0.108005 -3.084229,0.1305 -9.092938,0.1305 -6.00871,0 -6.719093,-0.02103 -9.090239,-0.1305 M 15.864435,2.4323156 C 13.469291,2.5403155 11.832379,2.9211584 10.402912,3.4775002 8.922597,4.051842 7.6695257,4.8223803 6.4170549,6.0726119 5.1648838,7.3229932 4.3961519,8.5780252 3.8218153,10.058353 c -0.5561871,1.43023 -0.9359783,3.066106 -1.0451758,5.46127 -0.110997,2.398915 -0.1364967,3.166004 -0.1364967,9.276161 0,6.110168 0.025499,6.877248 0.1364967,9.276164 0.1094974,2.395463 0.4889887,4.031191 1.0451758,5.46128 0.5743366,1.47942 1.3432187,2.735954 2.5952396,3.985739 1.2521708,1.249842 2.5055421,2.019173 3.9858571,2.59532 1.432167,0.556042 3.066379,0.935842 5.461523,1.045034 2.400394,0.108005 3.166126,0.136497 9.276534,0.136497 6.110408,0 6.877488,-0.02554 9.276535,-0.136497 2.395444,-0.108005 4.031155,-0.488992 5.461521,-1.045034 1.479416,-0.576147 2.733386,-1.34504 3.985708,-2.59532 1.25232,-1.250381 2.019402,-2.506319 2.59539,-3.985739 0.556185,-1.430089 0.937777,-3.065963 1.045026,-5.46128 0.109496,-2.400716 0.134995,-3.165996 0.134995,-9.276164 0,-6.110157 -0.02549,-6.877246 -0.134995,-9.276161 -0.109496,-2.395464 -0.488841,-4.031791 -1.045026,-5.46127 C 45.884135,8.5789252 45.115103,7.3249439 43.864733,6.0726119 42.614512,4.8204307 41.358441,4.051842 39.880826,3.4775002 38.448659,2.9211584 36.812798,2.539564 34.419304,2.4323156 32.020259,2.3243155 31.253177,2.295817 25.142768,2.295817 c -6.110407,0 -6.877939,0.024008 -9.278333,0.1364986"
     fill="url(#a)"
     id="path154"
     style="display:inline;fill:url(#a);stroke-width:1"
     inkscape:transform-center-x="-82.468211"
     inkscape:transform-center-y="211.89931" />
  <path
     d="m 17.640844,24.795784 c 0,-4.141886 3.356921,-7.500487 7.499077,-7.500487 4.142001,0 7.500722,3.358601 7.500722,7.500487 0,4.14189 -3.358721,7.500487 -7.500722,7.500487 -4.142156,0 -7.499077,-3.358597 -7.499077,-7.500487 m -4.054706,0 c 0,6.38091 5.172478,11.553289 11.553783,11.553289 6.38115,0 11.553627,-5.172379 11.553627,-11.553289 0,-6.381053 -5.172477,-11.553277 -11.553627,-11.553277 -6.381305,0 -11.553783,5.172224 -11.553783,11.553277 m 20.864814,-12.01137 a 2.7000557,2.6999597 0 1 0 2.701136,-2.698911 v 0 A 2.7013156,2.7012197 0 0 0 34.452,12.784414 M 16.05073,43.109918 C 13.857032,43.009455 12.664709,42.644628 11.872278,42.335929 10.821852,41.927037 10.07232,41.43999 9.284238,40.652951 8.496307,39.86607 8.008368,39.117281 7.6012771,38.066846 7.2924346,37.274857 6.926893,36.082222 6.8271453,33.888506 6.7176479,31.516894 6.6966481,30.804397 6.6966481,24.795941 c 0,-6.008465 0.024002,-6.718855 0.1304972,-9.09257 C 6.9276432,13.509803 7.2951344,12.31942 7.6012771,11.525033 8.010168,10.474747 8.497206,9.7252082 9.284238,8.9371191 c 0.787032,-0.788088 1.535814,-1.27588 2.58804,-1.6829748 0.792131,-0.3089948 1.984754,-0.6742395 4.178452,-0.7739888 2.371745,-0.1079996 3.084228,-0.1304977 9.090239,-0.1304977 6.00601,0 6.719244,0.023996 9.092938,0.1304977 2.1937,0.1004966 3.384071,0.4679933 4.178303,0.7739888 1.050575,0.4070948 1.800109,0.8960873 2.588189,1.6829748 0.788082,0.7868895 1.274071,1.5376279 1.682962,2.5879139 0.308994,0.792137 0.674384,1.98477 0.773981,4.178338 0.109497,2.373715 0.130498,3.084105 0.130498,9.09257 0,6.008456 -0.02248,6.718849 -0.130498,9.092565 -0.100495,2.193716 -0.466939,3.385901 -0.773981,4.17834 -0.408891,1.050435 -0.895931,1.799977 -1.682962,2.586105 -0.787033,0.786297 -1.537614,1.274086 -2.588189,1.682978 -0.791833,0.308992 -1.984603,0.674392 -4.178303,0.773989 -2.371894,0.108005 -3.084229,0.1305 -9.092938,0.1305 -6.00871,0 -6.719093,-0.02103 -9.090239,-0.1305 M 15.864435,2.4323156 C 13.469291,2.5403155 11.832379,2.9211584 10.402912,3.4775002 8.922597,4.051842 7.6695257,4.8223803 6.4170549,6.0726119 5.1648838,7.3229932 4.3961519,8.5780252 3.8218153,10.058353 c -0.5561871,1.43023 -0.9359783,3.066106 -1.0451758,5.46127 -0.110997,2.398915 -0.1364967,3.166004 -0.1364967,9.276161 0,6.110168 0.025499,6.877248 0.1364967,9.276164 0.1094974,2.395463 0.4889887,4.031191 1.0451758,5.46128 0.5743366,1.47942 1.3432187,2.735954 2.5952396,3.985739 1.2521708,1.249842 2.5055421,2.019173 3.9858571,2.59532 1.432167,0.556042 3.066379,0.935842 5.461523,1.045034 2.400394,0.108005 3.166126,0.136497 9.276534,0.136497 6.110408,0 6.877488,-0.02554 9.276535,-0.136497 2.395444,-0.108005 4.031155,-0.488992 5.461521,-1.045034 1.479416,-0.576147 2.733386,-1.34504 3.985708,-2.59532 1.25232,-1.250381 2.019402,-2.506319 2.59539,-3.985739 0.556185,-1.430089 0.937777,-3.065963 1.045026,-5.46128 0.109496,-2.400716 0.134995,-3.165996 0.134995,-9.276164 0,-6.110157 -0.02549,-6.877246 -0.134995,-9.276161 -0.109496,-2.395464 -0.488841,-4.031791 -1.045026,-5.46127 C 45.884135,8.5789252 45.115103,7.3249439 43.864733,6.0726119 42.614512,4.8204307 41.358441,4.051842 39.880826,3.4775002 38.448659,2.9211584 36.812798,2.539564 34.419304,2.4323156 32.020259,2.3243155 31.253177,2.295817 25.142768,2.295817 c -6.110407,0 -6.877939,0.024008 -9.278333,0.1364986"
     fill="url(#b)"
     id="path156"
     style="display:inline;fill:url(#b);stroke-width:1"
     inkscape:transform-center-x="-82.468211"
     inkscape:transform-center-y="211.89931" />
</svg>
