<?xml version="1.0" encoding="windows-1252"?>
<!-- Generator: Adobe Illustrator 19.0.0, SVG Export Plug-In . SVG Version: 6.00 Build 0)  -->
<svg version="1.1" id="Logo" xmlns="http://www.w3.org/2000/svg" xmlns:xlink="http://www.w3.org/1999/xlink" x="0px" y="0px" viewBox="0 0 503.841 503.841" style="enable-background:new 0 0 503.841 503.841;" xml:space="preserve">
<g>
	<path style="fill:#013c65;" d="M251.921,45.391c67.266,0,75.233,0.256,101.797,1.468c24.562,1.121,37.901,5.224,46.778,8.674   c11.759,4.57,20.151,10.029,28.966,18.845c8.815,8.815,14.275,17.208,18.845,28.966c3.45,8.877,7.554,22.216,8.674,46.778   c1.212,26.564,1.469,34.532,1.469,101.798s-0.257,75.233-1.469,101.797c-1.121,24.562-5.224,37.901-8.674,46.778   c-4.57,11.759-10.029,20.151-18.844,28.966c-8.815,8.815-17.208,14.275-28.966,18.845c-8.877,3.45-22.216,7.554-46.778,8.674   c-26.56,1.212-34.527,1.468-101.797,1.468s-75.237-0.257-101.797-1.468c-24.562-1.121-37.901-5.225-46.778-8.674   c-11.759-4.57-20.151-10.029-28.966-18.845c-8.815-8.815-14.275-17.208-18.845-28.966c-3.45-8.877-7.554-22.216-8.674-46.778   c-1.212-26.565-1.469-34.532-1.469-101.798s0.257-75.233,1.469-101.797c1.121-24.562,5.224-37.901,8.674-46.778   c4.57-11.759,10.029-20.151,18.845-28.966c8.815-8.815,17.208-14.275,28.966-18.845c8.877-3.45,22.216-7.554,46.778-8.674   C176.687,45.648,184.655,45.391,251.921,45.391 M251.921,0c-68.418,0-76.997,0.29-103.866,1.516   c-26.814,1.224-45.127,5.482-61.151,11.71c-16.566,6.438-30.615,15.052-44.62,29.057c-14.005,14.005-22.619,28.055-29.057,44.62   c-6.228,16.025-10.486,34.337-11.71,61.151C0.29,174.924,0,183.503,0,251.921c0,68.418,0.29,76.996,1.516,103.866   c1.223,26.815,5.482,45.127,11.71,61.151c6.438,16.566,15.052,30.615,29.057,44.62c14.005,14.005,28.055,22.619,44.62,29.057   c16.025,6.228,34.337,10.486,61.151,11.71c26.87,1.226,35.449,1.516,103.866,1.516s76.996-0.289,103.866-1.516   c26.814-1.223,45.127-5.482,61.151-11.71c16.566-6.438,30.615-15.052,44.62-29.057c14.005-14.005,22.619-28.055,29.057-44.62   c6.228-16.025,10.486-34.337,11.71-61.151c1.226-26.87,1.516-35.449,1.516-103.866s-0.29-76.997-1.516-103.866   c-1.224-26.814-5.482-45.127-11.71-61.151c-6.438-16.566-15.052-30.615-29.057-44.62c-14.005-14.005-28.055-22.619-44.62-29.057   c-16.025-6.228-34.337-10.486-61.151-11.71C328.917,0.29,320.338,0,251.921,0L251.921,0z"/>
	<path style="fill:#013c65;" d="M251.921,122.556c-71.446,0-129.365,57.918-129.365,129.365s57.918,129.365,129.365,129.365   s129.365-57.918,129.365-129.365S323.367,122.556,251.921,122.556z M251.921,335.894c-46.377,0-83.974-37.596-83.974-83.974   s37.596-83.973,83.974-83.973s83.973,37.596,83.973,83.973S298.298,335.894,251.921,335.894z"/>
	<circle style="fill:#013c65;" cx="386.396" cy="117.445" r="30.23"/>
</g>
</svg>