<?xml version="1.0" encoding="UTF-8" standalone="no"?>
<svg
   viewBox="0 0 144 216.00001"
   version="1.1"
   id="svg19"
   sodipodi:docname="karma-logo-small.svg"
   width="43.200001"
   height="64.800003"
   inkscape:version="1.2 (dc2aedaf03, 2022-05-15)"
   xmlns:inkscape="http://www.inkscape.org/namespaces/inkscape"
   xmlns:sodipodi="http://sodipodi.sourceforge.net/DTD/sodipodi-0.dtd"
   xmlns="http://www.w3.org/2000/svg"
   xmlns:svg="http://www.w3.org/2000/svg">
  <defs
     id="defs23" />
  <sodipodi:namedview
     id="namedview21"
     pagecolor="#ffffff"
     bordercolor="#666666"
     borderopacity="1.0"
     inkscape:showpageshadow="2"
     inkscape:pageopacity="0.0"
     inkscape:pagecheckerboard="0"
     inkscape:deskcolor="#d1d1d1"
     showgrid="false"
     inkscape:zoom="2.3240741"
     inkscape:cx="71.856574"
     inkscape:cy="108"
     inkscape:window-width="1366"
     inkscape:window-height="705"
     inkscape:window-x="-8"
     inkscape:window-y="-8"
     inkscape:window-maximized="1"
     inkscape:current-layer="svg19" />
  <path
     fill="#f15b2a"
     d="m 126.1,212.9 c 4.1,4.1 10.7,4.1 14.8,0 4.1,-4.1 4.1,-10.7 0,-14.8 l -28.6,-28.6 18.1,-18.1 C 138.8,143 144,131.4 144,118.5 144,92.8 123.2,72 97.5,72 71.8,72 51,92.8 51,118.5 c 0,12.8 5.2,24.5 13.6,32.9 l 18.1,18.1 -18.1,18.1 c -4.6,4.6 -11,7.5 -18.1,7.5 -14.1,0 -25.6,-11.5 -25.6,-25.6 V 10.5 C 20.9,4.7 16.2,0 10.5,0 4.7,0 0,4.7 0,10.5 v 159 C 0,195.2 20.8,216 46.5,216 59.3,216 71,210.8 79.4,202.4 L 97.5,184.3 Z M 79.4,136.6 c -4.6,-4.6 -7.5,-11 -7.5,-18.1 0,-14.1 11.5,-25.6 25.6,-25.6 14.1,0 25.6,11.5 25.6,25.6 0,7.1 -2.9,13.5 -7.5,18.1 l -18.1,18.1 z"
     id="path17" />
</svg>
